<svg xmlns="http://www.w3.org/2000/svg" width="245" height="84" viewBox="0 0 245 84" fill="none">
    <path fill-rule="evenodd" clip-rule="evenodd" d="M15.0014 2.81365H2.18351V44H17.5932C20.7108 44 23.3964 43.5305 25.6501 42.5914C27.9226 41.6336 29.6692 40.2626 30.89 38.4784C32.1107 36.6943 32.7211 34.5532 32.7211 32.0554C32.7211 29.8956 32.3831 28.1678 31.707 26.8719C31.0496 25.5572 30.1669 24.5618 29.0589 23.8857C27.9508 23.1908 26.7113 22.7025 25.3403 22.4208V22.1391C26.6925 21.895 27.8381 21.3691 28.7771 20.5615C29.7162 19.754 30.4299 18.721 30.9182 17.4627C31.4252 16.2044 31.6788 14.7958 31.6788 13.237C31.6788 9.36816 30.2702 6.66372 27.4531 5.12369C24.636 3.58367 20.4854 2.81365 15.0014 2.81365ZM15.9874 19.1248H10.9166V9.96915H15.5085C18.0063 9.96915 19.8281 10.3166 20.9737 11.0115C22.1381 11.6876 22.7203 12.8144 22.7203 14.392C22.7203 15.9508 22.232 17.134 21.2554 17.9416C20.2788 18.7304 18.5228 19.1248 15.9874 19.1248ZM10.9166 36.7882V26.0549H16.3255C18.1848 26.0549 19.6403 26.2709 20.692 26.7029C21.7625 27.1348 22.5231 27.7358 22.9739 28.5058C23.4246 29.2758 23.65 30.1679 23.65 31.1821C23.65 32.8911 23.1335 34.2527 22.1006 35.2669C21.0676 36.2811 19.2365 36.7882 16.6072 36.7882H10.9166ZM67.8225 35.1824C68.5361 33.1541 68.893 30.8252 68.893 28.1959C68.893 24.7027 68.2356 21.7447 66.921 19.322C65.6251 16.8993 63.8315 15.0587 61.5403 13.8004C59.2678 12.5421 56.6573 11.913 53.7087 11.913C50.5347 11.913 47.8021 12.5421 45.5109 13.8004C43.2196 15.0587 41.4542 16.8993 40.2147 19.322C38.9751 21.7447 38.3554 24.7027 38.3554 28.1959C38.3554 30.8252 38.7216 33.1541 39.454 35.1824C40.2053 37.2107 41.257 38.9292 42.6092 40.3377C43.9802 41.7275 45.586 42.7792 47.4265 43.4929C49.2858 44.2066 51.3235 44.5634 53.5397 44.5634C55.906 44.5634 58.0283 44.2066 59.9064 43.4929C61.8032 42.7792 63.4184 41.7275 64.7518 40.3377C66.104 38.9292 67.1276 37.2107 67.8225 35.1824ZM47.7927 33.4076C47.342 31.999 47.1166 30.2618 47.1166 28.1959C47.1166 25.0783 47.6237 22.7401 48.6379 21.1813C49.6708 19.6225 51.3235 18.8431 53.596 18.8431C55.136 18.8431 56.385 19.1905 57.3428 19.8854C58.3006 20.5803 58.9955 21.6226 59.4274 23.0124C59.8782 24.3834 60.1036 26.1113 60.1036 28.1959C60.1036 30.2618 59.8782 31.999 59.4274 33.4076C58.9955 34.8162 58.3006 35.8773 57.3428 36.591C56.4037 37.3046 55.1736 37.6615 53.6523 37.6615C52.1123 37.6615 50.8634 37.3046 49.9056 36.591C48.9477 35.8773 48.2435 34.8162 47.7927 33.4076ZM91.9934 37.4361C91.1107 37.6239 90.1998 37.7178 89.2608 37.7178C88.1339 37.7178 87.2231 37.4267 86.5282 36.8445C85.8521 36.2435 85.514 35.342 85.514 34.1401V18.9558H94.3316V12.5046H85.514V5.7998H80.0206L77.5415 12.4482L72.8088 15.3217V18.9558H76.9218V34.1401C76.9218 36.8445 77.3443 38.9573 78.1895 40.4786C79.0534 41.9811 80.2272 43.0422 81.7109 43.6619C83.2133 44.2629 84.9036 44.5634 86.7817 44.5634C88.3969 44.5634 89.8805 44.4226 91.2328 44.1409C92.6038 43.8779 93.7494 43.5399 94.6696 43.1267V36.7318C93.7869 37.0135 92.8949 37.2483 91.9934 37.4361ZM129.771 10.4762C131.067 9.8189 132.551 9.49024 134.222 9.49024C135.725 9.49024 137.255 9.76256 138.814 10.3072C140.373 10.8518 141.922 11.4904 143.462 12.2228L146.279 5.12369C144.401 4.22222 142.429 3.51793 140.363 3.01085C138.316 2.48499 136.269 2.22206 134.222 2.22206C131.104 2.22206 128.344 2.73853 125.94 3.77148C123.536 4.80442 121.517 6.26932 119.883 8.16619C118.249 10.0631 117.009 12.3074 116.164 14.8991C115.319 17.4909 114.897 20.3455 114.897 23.4632C114.897 27.6889 115.554 31.3887 116.869 34.5626C118.183 37.7178 120.202 40.1781 122.925 41.9435C125.667 43.6901 129.161 44.5634 133.405 44.5634C135.602 44.5634 137.584 44.3944 139.349 44.0563C141.115 43.7371 142.908 43.2018 144.73 42.4506V35.1261C142.758 35.8209 140.927 36.3562 139.237 36.7318C137.565 37.1074 135.894 37.2952 134.222 37.2952C131.818 37.2952 129.856 36.76 128.334 35.6895C126.813 34.6002 125.686 33.032 124.954 30.9849C124.24 28.919 123.883 26.4305 123.883 23.5195C123.883 21.3597 124.109 19.4159 124.559 17.6881C125.01 15.9602 125.667 14.4859 126.531 13.2652C127.414 12.0444 128.494 11.1148 129.771 10.4762ZM161.435 9.09584V0.165558H152.843V44H161.435V29.1819C161.435 26.947 161.642 25.0595 162.055 23.5195C162.468 21.9607 163.173 20.7869 164.168 19.9981C165.163 19.1905 166.525 18.7867 168.253 18.7867C169.981 18.7867 171.258 19.3596 172.084 20.5052C172.911 21.6508 173.324 23.3505 173.324 25.6042V44H181.916V23.4632C181.916 20.7587 181.446 18.5614 180.507 16.8711C179.568 15.162 178.254 13.9131 176.563 13.1243C174.873 12.3167 172.892 11.913 170.619 11.913C169.323 11.913 168.112 12.0726 166.985 12.3919C165.858 12.7111 164.825 13.2088 163.886 13.8849C162.966 14.5611 162.168 15.4438 161.492 16.533H161.041C161.097 15.9508 161.173 14.9555 161.266 13.5469C161.379 12.1383 161.435 10.6546 161.435 9.09584ZM213.383 14.6174C211.13 12.7769 207.89 11.8566 203.664 11.8566C201.448 11.8566 199.298 12.1102 197.213 12.6172C195.147 13.1243 193.278 13.8192 191.607 14.7019L194.452 20.5052C195.917 19.8479 197.382 19.3032 198.847 18.8713C200.312 18.4393 201.805 18.2233 203.326 18.2233C204.866 18.2233 206.068 18.6083 206.932 19.3783C207.796 20.1484 208.228 21.3597 208.228 23.0124V24.3928L202.763 24.5618C198.067 24.7309 194.546 25.6136 192.198 27.2099C189.851 28.7875 188.677 31.2478 188.677 34.5908C188.677 36.8633 189.1 38.7414 189.945 40.225C190.79 41.69 191.945 42.7792 193.41 43.4929C194.893 44.2066 196.565 44.5634 198.424 44.5634C200.171 44.5634 201.655 44.3944 202.875 44.0563C204.096 43.7183 205.176 43.1924 206.115 42.4787C207.054 41.7651 207.974 40.8448 208.876 39.718H209.101L210.763 44H216.764V23.0124C216.764 19.2563 215.637 16.4579 213.383 14.6174ZM204.904 29.52L208.228 29.4073V31.999C208.228 34.0086 207.589 35.558 206.312 36.6473C205.054 37.7366 203.505 38.2812 201.664 38.2812C200.424 38.2812 199.42 38.0089 198.65 37.4643C197.88 36.9008 197.495 35.9618 197.495 34.6471C197.495 33.1447 198.03 31.9333 199.1 31.0131C200.19 30.0928 202.124 29.5951 204.904 29.52ZM241.639 37.4361C240.756 37.6239 239.845 37.7178 238.906 37.7178C237.78 37.7178 236.869 37.4267 236.174 36.8445C235.498 36.2435 235.16 35.342 235.16 34.1401V18.9558H243.977V12.5046H235.16V5.7998H229.666L227.187 12.4482L222.454 15.3217V18.9558H226.567V34.1401C226.567 36.8445 226.99 38.9573 227.835 40.4786C228.699 41.9811 229.873 43.0422 231.356 43.6619C232.859 44.2629 234.549 44.5634 236.427 44.5634C238.042 44.5634 239.526 44.4226 240.878 44.1409C242.249 43.8779 243.395 43.5399 244.315 43.1267V36.7318C243.433 37.0135 242.54 37.2483 241.639 37.4361ZM9.12553 79.2361L10.7261 83.3619H12.291L7.24046 70.3087H5.88L0.793854 83.3619H2.32326L3.9149 79.2361H9.12553ZM7.15154 73.7943L8.67205 77.8934H4.42174L5.96892 73.7943C6.01634 73.652 6.07266 73.4801 6.13787 73.2785C6.20307 73.0711 6.26828 72.8488 6.33349 72.6116C6.40462 72.3686 6.46983 72.1256 6.52911 71.8825C6.58246 72.0426 6.65063 72.253 6.73362 72.5138C6.81661 72.7747 6.89664 73.0266 6.9737 73.2696C7.05669 73.5127 7.11597 73.6876 7.15154 73.7943ZM14.0961 70.362V83.3619H15.6077V70.362H14.0961ZM18.133 77.8134V79.1294H22.5434V77.8134H18.133ZM26.3046 72.9851V69.5262H24.8286V83.3619H25.8956L26.1979 82.0548H26.3135C26.5803 82.4698 26.9596 82.8225 27.4517 83.1129C27.9496 83.3975 28.5839 83.5397 29.3545 83.5397C30.1785 83.5397 30.8928 83.3471 31.4975 82.9618C32.1021 82.5765 32.5704 82.0074 32.9024 81.2545C33.2343 80.5017 33.4003 79.5769 33.4003 78.4803C33.4003 76.8145 33.0358 75.5608 32.3066 74.719C31.5834 73.8713 30.6112 73.4475 29.3901 73.4475C28.6076 73.4475 27.9644 73.5986 27.4606 73.901C26.9567 74.2033 26.5714 74.5738 26.3046 75.0125H26.2246C26.2364 74.805 26.2513 74.5145 26.269 74.1411C26.2928 73.7676 26.3046 73.3823 26.3046 72.9851ZM27.4694 75.1014C27.8844 74.8228 28.4446 74.6835 29.15 74.6835C30.0688 74.6835 30.7505 75.0006 31.1951 75.6349C31.6457 76.2692 31.8709 77.2147 31.8709 78.4714C31.8709 79.7044 31.6427 80.6529 31.1862 81.3168C30.7357 81.9807 30.057 82.3127 29.15 82.3127C28.0711 82.3127 27.3272 81.9896 26.9182 81.3435C26.5091 80.6914 26.3046 79.7518 26.3046 78.5247V78.4447C26.3046 77.597 26.3935 76.8975 26.5714 76.3462C26.7551 75.789 27.0545 75.3741 27.4694 75.1014ZM42.2122 74.2389C41.649 73.7172 40.7865 73.4564 39.6246 73.4564C38.9963 73.4564 38.3976 73.5364 37.8285 73.6965C37.2594 73.8565 36.7555 74.0492 36.3169 74.2744L36.7703 75.3948C37.1853 75.1933 37.624 75.0184 38.0863 74.8702C38.5487 74.722 39.0348 74.6479 39.5446 74.6479C40.2026 74.6479 40.7124 74.8168 41.074 75.1547C41.4356 75.4926 41.6164 76.0824 41.6164 76.9242V77.52L39.9358 77.5911C38.359 77.6385 37.1853 77.9231 36.4147 78.4447C35.644 78.9664 35.2587 79.7133 35.2587 80.6855C35.2587 81.3316 35.3891 81.8651 35.65 82.286C35.9167 82.7069 36.2783 83.0211 36.7348 83.2285C37.1971 83.436 37.7247 83.5397 38.3175 83.5397C38.8807 83.5397 39.3549 83.4805 39.7402 83.3619C40.1315 83.2374 40.4753 83.0566 40.7717 82.8195C41.0681 82.5765 41.3526 82.2771 41.6253 81.9214H41.6964L41.981 83.3619H43.0569V76.7375C43.0569 75.5934 42.7753 74.7605 42.2122 74.2389ZM40.1137 78.6226L41.5986 78.5603V79.4584C41.5986 80.4187 41.323 81.1389 40.7717 81.6191C40.2204 82.0993 39.512 82.3393 38.6465 82.3393C38.0893 82.3393 37.6417 82.206 37.3039 81.9392C36.966 81.6725 36.797 81.2605 36.797 80.7032C36.797 80.063 37.046 79.5681 37.5439 79.2183C38.0419 78.8686 38.8985 78.67 40.1137 78.6226ZM51.931 82.2682C52.2451 81.8414 52.4022 81.3168 52.4022 80.6944C52.4022 80.1608 52.2807 79.7251 52.0377 79.3873C51.8006 79.0434 51.4597 78.753 51.0151 78.5158C50.5705 78.2728 50.0429 78.0387 49.4324 77.8134C48.8218 77.5822 48.3298 77.3807 47.9563 77.2087C47.5828 77.0368 47.3102 76.8531 47.1383 76.6574C46.9723 76.4618 46.8893 76.2129 46.8893 75.9105C46.8893 75.5193 47.0701 75.211 47.4317 74.9858C47.7992 74.7605 48.3238 74.6479 49.0055 74.6479C49.4798 74.6479 49.9451 74.7072 50.4016 74.8257C50.858 74.9443 51.2878 75.0895 51.6909 75.2614L52.1888 74.0788C51.7442 73.8832 51.2641 73.7291 50.7484 73.6164C50.2386 73.4979 49.6902 73.4386 49.1034 73.4386C48.0185 73.4386 47.1412 73.6609 46.4714 74.1055C45.8074 74.5442 45.4755 75.1755 45.4755 75.9995C45.4755 76.5389 45.597 76.9776 45.84 77.3154C46.089 77.6533 46.4388 77.9408 46.8893 78.178C47.3457 78.4091 47.8852 78.6433 48.5076 78.8804C49.136 79.1116 49.628 79.325 49.9837 79.5206C50.3393 79.7103 50.5913 79.9089 50.7395 80.1164C50.8936 80.3179 50.9706 80.5521 50.9706 80.8188C50.9706 81.2871 50.781 81.6576 50.4016 81.9303C50.0222 82.203 49.4116 82.3393 48.5698 82.3393C47.9948 82.3393 47.4317 82.2593 46.8804 82.0993C46.3291 81.9392 45.8549 81.7614 45.4577 81.5658V82.9262C45.8312 83.1218 46.2668 83.273 46.7648 83.3797C47.2627 83.4864 47.8526 83.5397 48.5343 83.5397C49.3345 83.5397 50.0222 83.4331 50.5972 83.2196C51.1781 83.0062 51.6227 82.6891 51.931 82.2682ZM60.6628 73.9899C60.07 73.6224 59.3586 73.4386 58.5287 73.4386C57.6573 73.4386 56.8986 73.6461 56.2524 74.061C55.6122 74.476 55.1143 75.0688 54.7586 75.8394C54.4088 76.6041 54.234 77.5111 54.234 78.5603C54.234 79.6333 54.4266 80.5402 54.8119 81.2812C55.1972 82.0222 55.7367 82.5854 56.4303 82.9707C57.1297 83.3501 57.9478 83.5397 58.8844 83.5397C59.5424 83.5397 60.1115 83.4894 60.5916 83.3886C61.0777 83.2878 61.5668 83.1278 62.0588 82.9084V81.6102C61.549 81.8296 61.057 81.9955 60.5828 82.1082C60.1085 82.2208 59.5632 82.2771 58.9466 82.2771C57.9448 82.2771 57.1683 81.9777 56.617 81.379C56.0657 80.7803 55.7811 79.9089 55.7634 78.7648H62.4945V77.849C62.4945 76.9657 62.3374 76.1951 62.0232 75.5371C61.7091 74.8731 61.2556 74.3574 60.6628 73.9899ZM56.6259 75.4215C57.0942 74.9058 57.7225 74.6479 58.5109 74.6479C59.0682 74.6479 59.5246 74.7724 59.8803 75.0213C60.236 75.2644 60.4998 75.6082 60.6717 76.0528C60.8495 76.4915 60.9414 77.0013 60.9473 77.5822H55.79C55.879 76.6574 56.1576 75.9372 56.6259 75.4215ZM65.5355 82.2771C66.2587 83.1189 67.2368 83.5397 68.4698 83.5397C68.9974 83.5397 69.4539 83.4716 69.8392 83.3352C70.2304 83.193 70.5654 83.0033 70.844 82.7662C71.1285 82.529 71.3627 82.2653 71.5464 81.9748H71.6087L71.831 83.3619H73.0225V69.5262H71.5464V73.4297C71.5464 73.6312 71.5583 73.8921 71.582 74.2122C71.6057 74.5323 71.6294 74.7842 71.6531 74.968H71.5464C71.3567 74.6775 71.1226 74.4197 70.844 74.1944C70.5654 73.9632 70.2334 73.7794 69.8481 73.6431C69.4628 73.5068 69.0122 73.4386 68.4965 73.4386C67.2754 73.4386 66.2973 73.8684 65.5622 74.7279C64.8271 75.5815 64.4596 76.8471 64.4596 78.5247C64.4596 80.1846 64.8182 81.4353 65.5355 82.2771ZM70.9151 81.4235C70.4824 82.0163 69.7443 82.3127 68.701 82.3127C67.7881 82.3127 67.1064 81.9866 66.6559 81.3346C66.2113 80.6825 65.989 79.7577 65.989 78.5603C65.989 77.3569 66.2143 76.4085 66.6648 75.7149C67.1153 75.0154 67.7941 74.6657 68.701 74.6657C69.7858 74.6657 70.5327 74.9976 70.9418 75.6616C71.3567 76.3255 71.5642 77.2769 71.5642 78.5158V78.7826C71.5642 79.9504 71.3478 80.8307 70.9151 81.4235ZM86.7159 82.2682C87.0301 81.8414 87.1872 81.3168 87.1872 80.6944C87.1872 80.1608 87.0657 79.7251 86.8226 79.3873C86.5855 79.0434 86.2447 78.753 85.8001 78.5158C85.3555 78.2728 84.8279 78.0387 84.2173 77.8134C83.6068 77.5822 83.1147 77.3807 82.7413 77.2087C82.3678 77.0368 82.0951 76.8531 81.9232 76.6574C81.7572 76.4618 81.6743 76.2129 81.6743 75.9105C81.6743 75.5193 81.8551 75.211 82.2167 74.9858C82.5842 74.7605 83.1088 74.6479 83.7905 74.6479C84.2648 74.6479 84.7301 74.7072 85.1865 74.8257C85.643 74.9443 86.0728 75.0895 86.4759 75.2614L86.9738 74.0788C86.5292 73.8832 86.0491 73.7291 85.5333 73.6164C85.0235 73.4979 84.4752 73.4386 83.8883 73.4386C82.8035 73.4386 81.9262 73.6609 81.2563 74.1055C80.5924 74.5442 80.2605 75.1755 80.2605 75.9995C80.2605 76.5389 80.382 76.9776 80.625 77.3154C80.874 77.6533 81.2237 77.9408 81.6743 78.178C82.1307 78.4091 82.6702 78.6433 83.2926 78.8804C83.9209 79.1116 84.413 79.325 84.7686 79.5206C85.1243 79.7103 85.3762 79.9089 85.5244 80.1164C85.6786 80.3179 85.7556 80.5521 85.7556 80.8188C85.7556 81.2871 85.5659 81.6576 85.1865 81.9303C84.8072 82.203 84.1966 82.3393 83.3548 82.3393C82.7798 82.3393 82.2167 82.2593 81.6654 82.0993C81.1141 81.9392 80.6398 81.7614 80.2427 81.5658V82.9262C80.6161 83.1218 81.0518 83.273 81.5498 83.3797C82.0477 83.4864 82.6375 83.5397 83.3193 83.5397C84.1195 83.5397 84.8072 83.4331 85.3822 83.2196C85.9631 83.0062 86.4077 82.6891 86.7159 82.2682ZM95.4478 73.9899C94.855 73.6224 94.1436 73.4386 93.3137 73.4386C92.4423 73.4386 91.6835 73.6461 91.0374 74.061C90.3972 74.476 89.8992 75.0688 89.5436 75.8394C89.1938 76.6041 89.0189 77.5111 89.0189 78.5603C89.0189 79.6333 89.2116 80.5402 89.5969 81.2812C89.9822 82.0222 90.5217 82.5854 91.2152 82.9707C91.9147 83.3501 92.7328 83.5397 93.6694 83.5397C94.3274 83.5397 94.8965 83.4894 95.3766 83.3886C95.8627 83.2878 96.3518 83.1278 96.8438 82.9084V81.6102C96.334 81.8296 95.842 81.9955 95.3677 82.1082C94.8935 82.2208 94.3481 82.2771 93.7316 82.2771C92.7298 82.2771 91.9533 81.9777 91.402 81.379C90.8507 80.7803 90.5661 79.9089 90.5483 78.7648H97.2795V77.849C97.2795 76.9657 97.1224 76.1951 96.8082 75.5371C96.494 74.8731 96.0406 74.3574 95.4478 73.9899ZM91.4109 75.4215C91.8792 74.9058 92.5075 74.6479 93.2959 74.6479C93.8531 74.6479 94.3096 74.7724 94.6653 75.0213C95.021 75.2644 95.2847 75.6082 95.4566 76.0528C95.6345 76.4915 95.7264 77.0013 95.7323 77.5822H90.575C90.6639 76.6574 90.9425 75.9372 91.4109 75.4215ZM104.829 73.4742C104.615 73.4504 104.411 73.4386 104.215 73.4386C103.753 73.4386 103.332 73.5275 102.952 73.7054C102.579 73.8832 102.25 74.1233 101.965 74.4256C101.681 74.722 101.438 75.051 101.236 75.4126H101.174L101.014 73.6164H99.787V83.3619H101.272V78.1335C101.272 77.6296 101.346 77.1732 101.494 76.7642C101.642 76.3492 101.847 75.9965 102.108 75.706C102.369 75.4096 102.671 75.1844 103.015 75.0302C103.364 74.8702 103.735 74.7902 104.126 74.7902C104.298 74.7902 104.482 74.802 104.678 74.8257C104.873 74.8494 105.051 74.882 105.211 74.9235L105.398 73.5542C105.232 73.5186 105.042 73.4919 104.829 73.4742ZM105.682 73.6164L109.381 83.3619H111.071L114.779 73.6164H113.196L111.053 79.5117C110.917 79.9089 110.765 80.3535 110.599 80.8455C110.434 81.3316 110.315 81.7228 110.244 82.0192H110.182C110.122 81.7228 110.016 81.3316 109.861 80.8455C109.707 80.3594 109.556 79.9148 109.408 79.5117L107.265 73.6164H105.682ZM117.82 83.3619V73.6164H116.344V83.3619H117.82ZM117.722 70.2108C117.55 70.0508 117.342 69.9708 117.099 69.9708C116.845 69.9708 116.631 70.0508 116.459 70.2108C116.293 70.365 116.21 70.608 116.21 70.94C116.21 71.266 116.293 71.5091 116.459 71.6691C116.631 71.8292 116.845 71.9092 117.099 71.9092C117.342 71.9092 117.55 71.8292 117.722 71.6691C117.9 71.5091 117.989 71.266 117.989 70.94C117.989 70.608 117.9 70.365 117.722 70.2108ZM122.532 82.9974C123.202 83.359 123.976 83.5397 124.853 83.5397C125.404 83.5397 125.879 83.4953 126.276 83.4064C126.679 83.3175 127.044 83.19 127.37 83.024V81.708C127.032 81.8562 126.655 81.9866 126.24 82.0993C125.825 82.206 125.36 82.2593 124.844 82.2593C124.198 82.2593 123.659 82.1141 123.226 81.8236C122.799 81.5272 122.476 81.1004 122.257 80.5432C122.043 79.986 121.937 79.3132 121.937 78.5247C121.937 77.7008 122.046 77.0072 122.266 76.444C122.491 75.8809 122.826 75.4541 123.27 75.1636C123.721 74.8731 124.284 74.7279 124.96 74.7279C125.298 74.7279 125.659 74.7753 126.045 74.8702C126.436 74.965 126.78 75.0717 127.076 75.1903L127.521 73.9543C127.23 73.8061 126.857 73.6846 126.4 73.5898C125.95 73.489 125.482 73.4386 124.995 73.4386C124.112 73.4386 123.324 73.6194 122.63 73.981C121.937 74.3426 121.391 74.8998 120.994 75.6527C120.603 76.3996 120.407 77.3629 120.407 78.5425C120.407 79.6688 120.594 80.6025 120.967 81.3435C121.341 82.0844 121.863 82.6357 122.532 82.9974ZM135.568 73.9899C134.975 73.6224 134.264 73.4386 133.434 73.4386C132.562 73.4386 131.804 73.6461 131.157 74.061C130.517 74.476 130.019 75.0688 129.664 75.8394C129.314 76.6041 129.139 77.5111 129.139 78.5603C129.139 79.6333 129.332 80.5402 129.717 81.2812C130.102 82.0222 130.642 82.5854 131.335 82.9707C132.035 83.3501 132.853 83.5397 133.789 83.5397C134.447 83.5397 135.017 83.4894 135.497 83.3886C135.983 83.2878 136.472 83.1278 136.964 82.9084V81.6102C136.454 81.8296 135.962 81.9955 135.488 82.1082C135.014 82.2208 134.468 82.2771 133.852 82.2771C132.85 82.2771 132.073 81.9777 131.522 81.379C130.971 80.7803 130.686 79.9089 130.668 78.7648H137.4V77.849C137.4 76.9657 137.242 76.1951 136.928 75.5371C136.614 74.8731 136.161 74.3574 135.568 73.9899ZM131.531 75.4215C131.999 74.9058 132.628 74.6479 133.416 74.6479C133.973 74.6479 134.43 74.7724 134.785 75.0213C135.141 75.2644 135.405 75.6082 135.577 76.0528C135.755 76.4915 135.846 77.0013 135.852 77.5822H130.695C130.784 76.6574 131.063 75.9372 131.531 75.4215Z" fill="white"/>
</svg>