<svg xmlns="http://www.w3.org/2000/svg" width="24" height="24" viewBox="0 0 24 24" fill="none">
    <path d="M21.6154 13.9231H20.6538C20.6538 10.2019 17.6442 7.19231 13.9231 7.19231H12.9615V5.97115C13.254 5.80233 13.4968 5.55948 13.6656 5.26705C13.8343 4.97461 13.9232 4.64288 13.9231 4.30523C13.923 3.96757 13.834 3.63589 13.6651 3.34354C13.4961 3.05119 13.2532 2.80847 12.9607 2.6398C12.6682 2.47112 12.3364 2.38243 11.9988 2.38265C11.6611 2.38286 11.3295 2.47198 11.0372 2.64103C10.7449 2.81008 10.5023 3.05311 10.3337 3.34568C10.1651 3.63825 10.0766 3.97004 10.0769 4.30769C10.0769 5.01923 10.4615 5.64423 11.0385 5.97115V7.19231H10.0769C6.35577 7.19231 3.34615 10.2019 3.34615 13.9231H2.38462C1.85577 13.9231 1.42308 14.3558 1.42308 14.8846V17.7692C1.42308 18.2981 1.85577 18.7308 2.38462 18.7308H3.34615V19.6923C3.34615 20.2023 3.54876 20.6915 3.90941 21.0521C4.27006 21.4128 4.7592 21.6154 5.26923 21.6154H18.7308C19.7981 21.6154 20.6538 20.7596 20.6538 19.6923V18.7308H21.6154C22.1442 18.7308 22.5769 18.2981 22.5769 17.7692V14.8846C22.5769 14.3558 22.1442 13.9231 21.6154 13.9231ZM9.875 16.3269C9.5 15.4808 8.66346 14.8846 7.67308 14.8846C6.68269 14.8846 5.84615 15.4808 5.47115 16.3269C5.34615 16.0288 5.26923 15.7115 5.26923 15.3654C5.26923 14.7278 5.52249 14.1164 5.9733 13.6656C6.42411 13.2148 7.03554 12.9615 7.67308 12.9615C8.31062 12.9615 8.92204 13.2148 9.37285 13.6656C9.82366 14.1164 10.0769 14.7278 10.0769 15.3654C10.0769 15.7115 10 16.0288 9.875 16.3269ZM18.5288 16.3269C18.1538 15.4808 17.2885 14.8846 16.3269 14.8846C15.3654 14.8846 14.5 15.4808 14.125 16.3269C14 16.0288 13.9231 15.7115 13.9231 15.3654C13.9231 14.7278 14.1763 14.1164 14.6271 13.6656C15.078 13.2148 15.6894 12.9615 16.3269 12.9615C16.9645 12.9615 17.5759 13.2148 18.0267 13.6656C18.4775 14.1164 18.7308 14.7278 18.7308 15.3654C18.7308 15.7115 18.6538 16.0288 18.5288 16.3269Z" fill="white"/>
</svg>